<?xml version="1.0" encoding="UTF-8"?>
<svg id="Layer_1" xmlns="http://www.w3.org/2000/svg" version="1.1" viewBox="0 0 1920 1300">
  <!-- Generator: Adobe Illustrator 30.4.0, SVG Export Plug-In . SVG Version: 2.1.4 Build 226)  -->
  <defs>
    <style>
      .st0 {
        fill: #212349;
      }

      .st1 {
        fill: #d3367a;
      }

      .st2 {
        fill: #fdfdfd;
      }
    </style>
  </defs>
  <rect class="st2" width="1920" height="1300"/>
  <g>
    <path class="st1" d="M540.7,638.1c-2.7,14.1-13.3,33.9-22.5,45.3l-4.1,5c-1.6,1.9-3.2,3.4-5.1,5.2l-7.4,6.8-9.5,7.1c-5.4,4-11.2,6.9-17.4,9.5-11.5,4.8-23.2,7.4-35.6,8.4s-19.5-.2-29.3-2.2c-13.5-2.8-25.8-7.8-37.2-15.4-1.4-.9-3.5-.4-4.9.1l-34.6,13.4-10.4,4c-.6.2-1.4.4-1.8.2s-1.1-.7-1.1-1.6v-292c0-1.6.9-2.4,2.3-2.4h58.8s0,70.8,0,70.8c0,.8.3,1.3.6,1.6s.9.4,1.6,0c18.6-9.8,39.3-13.3,60.2-11.3,23.9,2.3,47.4,13.5,64.4,30.1,2.7,2.7,5.6,4.9,7.9,8.1l10.7,14.3,3.6,6.8c8.9,17,13.1,30.9,14.4,50.5.3,5.1.8,9.8-.2,14.9l-.2,6.7-3.1,16.2ZM467.3,662l27.6,10.3-.3-70.2c0-13.3-6.5-26-14.4-36.1-3.3-4.2-6.7-7.1-10.7-10.2-8.3-6.4-17.6-10.5-28.3-11.8s-23.5.2-33.5,5.3c-5.1,2.7-9.8,5.6-14.1,9.4-26.8,24.2-28.9,66.8-4.9,93.3,20.8,22.9,52.4,26.9,78.7,9.9Z"/>
    <path class="st0" d="M1567.2,501.3l-14.9,22.9-6,9.5-5.5,9.3c-.6,1-1.4,1.4-2.3,1.4-1.4,0-1.5-1-2.1-2.1l-11.8-19.1-12.3-19.6-.7-.9c-.2-.3-1.5,0-1.5.6v18.3c.1,0,.1,8,.1,8v32.5c0,1.5.6,2.9-.5,4.5h-29.2c-1.4,0-2.2-.8-2.2-2.2v-113.7c0-2.4,1-3.9,3.5-3.9h29.9c2.5,1.9,3.5,4.5,5,7l6.9,11.9,7.5,12.5,8.3,13.1,23.2-39.3c1.1-1.8,2.1-4.7,4.3-5.3h31.4c.9-.1,1.6.8,1.6,1.6v15.9s0,33.2,0,33.2v66.8c.2,1.4-.7,2.3-2.1,2.3h-30.1c0,0-.4-65.3-.4-65.3Z"/>
    <path class="st0" d="M702.8,524.7c.9,5.5,1,10.5.1,15.7-2.9,16.7-21.4,25.7-36.9,25.9l-62,.4c-1,0-2.3-.7-2.3-1.9v-117.6s66,.3,66,.3c8,0,15.3,3.8,21.2,8.3,7.3,6.1,10.7,16.1,9.6,25.3-1.2,9.7-6.4,17.7-15.7,22.6,4.1,2.4,7.4,3.7,10.5,6.3,4.5,3.8,8.3,8.5,9.4,14.8ZM663.5,491.9c4.9-3.5,5.2-10.8,1-14.7s-4.3-3-6.6-3l-19.4-.2c-1.5-.6-4.4-.9-5.6.4l-.2,20.2h23.8c2.3-.2,4.9-1.2,6.9-2.6ZM659.6,539.6c3.1,0,6.7-1.5,9.1-3.3,3.6-2.8,4.2-7.6,2.7-11.9s-4.8-6.6-9.2-6.6l-29.7-.2v20.9c0,1.1,1.8,1.4,2.5,1.4l24.7-.2Z"/>
    <path class="st0" d="M1183.2,566.5h-33.6c-1.9.1-2.5-1-3.3-2.3l-21.3-33.6h-12.7c0,.1-.1,33.7-.1,33.7,0,1.2-1,2.3-2.2,2.3h-28.4c-.8,0-1.7-.9-1.7-1.8l.2-101.8.4-15.9,62,.4c9.4,0,18.5,4,25.4,9.7,7.3,6.1,11.4,13.7,12.7,22.9,2.7,19.5-4,36-22.2,44.5l4.4,7,12.4,19.1,8.7,13.1c.3.5.6.8.6,1.2s-.5,1.4-1.1,1.4ZM1139.4,503.1c6.2-1.7,9.7-7,9.6-13.1,0-4-1.2-7.7-4-10.3-3.4-2.5-7-3.8-11.2-3.8h-21.9s-.1,26.1-.1,26.1c0,1.3,1,2.3,2.3,2.3l19.4-.2,6-1.1Z"/>
    <path class="st0" d="M1444.6,545.5c-4.3,5.2-8.7,9.5-14.2,13-5.8,3.7-11.3,6.6-18.1,8.3-11.3,2.8-22.5,2.9-33.9-.3-7.9-2.2-14.8-6.1-21.4-11.2-5.7-4.4-10.3-10.3-14.1-16.5-5.9-9.7-7.7-20.4-8-31.6-1-34.6,26.5-62.5,60-62.5h4.2c13.9,0,29.5,6.7,39.6,16.6,6.5,6.3,11.3,13.4,14.7,22,6.7,17.4,5.9,36.4-3,52.9-1.8,3.3-3.3,6.4-5.8,9.4ZM1398.9,538.2c10.8-.8,19-7.6,23.2-17.3s3.7-22.2-1.8-31.8c-4.5-7.7-11.4-12.4-20-14-13.5-2.4-26.6,6.4-30.8,19.7-3.6,11.1-2,23.7,5.1,32.8s14.3,11.4,24.4,10.6Z"/>
    <path class="st0" d="M1298.2,553.4c-24.3,22-63.1,20.5-86.2-4.4-2.7-2.9-4.6-5.8-6.6-9-4.7-7.5-7.6-15.6-8.5-24.5-1.4-14,0-26,6.6-38.5s14.5-19.7,26-25.6c17.4-8.9,39-8.8,56.5,0,24,12.1,35.9,37.9,32.4,64.4s-2.6,11.6-5.1,17.2c-3.6,8.1-8.5,14.6-15,20.5ZM1248.4,536.5c6.2,2.3,13.4,2.3,19.5-.3,12.3-5.1,18.7-17.6,18.1-30.8s-3.7-17.5-10.4-23.5c-9.7-8.6-24.6-9.3-34.5-1.3s-12.9,18.1-11.7,29.5c1.1,11.5,8,22.2,19.1,26.3Z"/>
    <path class="st0" d="M1051.5,566.5h-29.5c-.8-.8-1-1.7-1.1-2.8l-.2-42.3h-39s0,42.3,0,42.3c.1.9,0,1.6-.5,2.1s-1.3.8-2.3.8l-28.4-.2c-1-.1-1.5-2.8-1.1-3.7,1-2.4,0-5.5,0-8.2l.2-44.2.3-63.1h29.6c1.4,0,2.3.8,2.2,2.2v41.8c0,0,38.9,0,38.9,0,.5-2.5.8-4.6.7-7v-37c0,0,30.2,0,30.2,0,.9,0,1.6.9,1.7,1.8v115.8c0,.9-.9,1.8-1.7,1.8Z"/>
    <path class="st0" d="M795.9,545.4h-42.7s-7.4,19.5-7.4,19.5c-.2.6-.8,1.6-1.7,1.6h-32.1c-1-2.1.1-3.4.8-5l4.6-11,6.7-16.9,10.2-25.2,8.1-20,15.5-38.2c.5-1.2,1.1-3.9,2.7-3.9l26.7-.3c2,0,3.4,0,4.2,2l6.8,17.1,8.5,20.7,12,29.7,6.6,16.3,12.3,30.6c.3.8.9,1.5,1,2.2s-.4,1.8-1.3,1.9h-31.2c-1.3.1-2.2-.6-2.7-1.7l-7.5-19.3ZM787,518.4l-12.3-31.5-12.1,31.8,24.4-.3Z"/>
    <path class="st0" d="M896.7,566.5h-26.5c-1.6,0-3.3-.4-3.3-2.2v-87.5s-31.5,0-31.5,0c-1.4,0-2.3-.8-2.3-2.2v-25.1c0-1.4.8-2.2,2.3-2.2h95.4c1.1,0,2.3.6,2.3,1.7v26.6c-1.1,1.2-2.4,1.2-3.9,1.2h-29.8s0,88.5,0,88.5c0,.7-1.8,1.3-2.5,1.3Z"/>
    <path class="st0" d="M1167.5,699.9c-1-9.2.8-18.1,7.4-24.2,6.1-5.6,14-8.4,22.1-9h14.3c5.7,0,11.1,1.2,16.6,3.1,1.2-2.4.6-4.8.3-7.2-1.1-9.3-7.6-16-16.8-17.7-2.4-.4-5-1.2-7.5-1l-5.7.5c-8.9.8-18,5.9-19.1,5.6s-1.1-.6-1.4-1.2l-3.2-9.6c7.4-3.7,15.2-6.6,23.5-7.1h14.7c17.3,1.8,28.3,14.9,28.4,32.2l.4,54c0,.9-.2,1.6-.5,2.1s-1.3.9-2.3.8l-10.1-.2-.3-11-5.3,4.6c-6.6,5.8-14.5,8.4-23.3,8.4s-16.8-1.5-23.2-7.1-8.4-9.5-9.2-15.9ZM1227.3,697c2.3-5,2.1-10.9,1.3-16.5-6.8-2.5-13.5-3.8-20.5-3.7h-6.7c-9.8,0-19.3,5.2-20.7,15.7-1.2,8.4,4,16,12.3,18.5,12.9,3.8,28.6-1.2,34.3-13.9Z"/>
    <path class="st0" d="M603.2,712.3c-9.5-11.5-7.6-32,6.7-40.3,8.3-4.8,19.5-6.4,29.1-5.4,4.8.5,9.6.4,14.3,1.9s3.2.9,5.1.5c.9-6.9-.9-14.1-6.1-18.9s-10.7-5.6-17.1-5.9-17.1,2.4-25,6-2.1-.4-2.4-1.4l-2.5-7.2c-.3-.7-.2-1.5,0-2.3s1.2-.8,2-1.1c9.4-4.9,19.4-6.5,29.9-6.3s16,1.8,22.5,6.8c5,3.8,8.3,8.5,10,14.7s1.7,6,1.7,9.1l.2,58.5h-12.7s-.4-11.1-.4-11.1l-7.1,6.4c-10.2,9.2-36.5,10.1-48.1-3.9ZM658.9,692.3v-11.9c0,0-14.2-3.3-14.2-3.3h-5c-3.1-.9-5.7-.4-8.8-.2-6.9.4-13.7,2.8-17.6,8.9s-3,15.9,2.7,21.1c9.7,8.8,29.3,6.6,38.4-4.5,2.3-2.8,4.5-6.2,4.6-10Z"/>
    <path class="st0" d="M965.6,711c-17.6,17.2-46.8,15.9-62.4-2.2-6.9-7.9-11.5-19.1-11.4-29.4v-3.7c.3-19.7,12.5-37.6,31.8-43.1,8.3-2.4,17.4-1.8,25.5.4s9.6,4.7,14,7.8,7.7,7.6,10.5,12.5c10.4,18.9,7.2,42.8-7.9,57.7ZM957.7,700.8c11.3-12.9,11-34.4-.3-47.3-11.6-13.3-32.2-14.1-43.8-.5s-11.6,34.8.5,48.1c11.9,13.1,32,13,43.6-.3Z"/>
    <path class="st0" d="M1491.2,683.5c-3.3,20.7-17.2,36.7-38.3,39.4-14.1,1.8-27.8-3.2-37.3-13.7-17.5-19.3-15.4-52.4,5.1-68.8s17-9.2,27-9.2c11.6,0,21.6,3.9,30.1,12,7.6,7.3,12.3,17.4,13.4,28.1.6,4.2.6,7.9,0,12.1ZM1473.6,695.6c5.4-10,5.9-21.6,2.1-32s-5.8-10.6-10.9-14.5c-11.6-8.8-28.4-7.7-38.4,3.2-14.8,16.2-11.8,44.7,8.5,55.5,13.4,7.1,31.2,1.7,38.8-12.2Z"/>
    <path class="st0" d="M1540,667.2l-.3,53.1c-.4,1.2-2.5,1.3-3.4,1.1-4.1-1.1-7.6,1.3-10-1v-85.5c0-1.6,1.4-2.3,2.7-2.3h8.6c1.3,0,2.2.9,2.2,2.2l.3,10.6c2.2-1.2,2.7-2.8,4.1-4.1,3.7-3.5,7.3-7.2,12.5-8.6,9.1-2.4,21.9-2.2,29.5,3.4s14,16.5,14,27.7l.2,57-9.3.4c-1.1,0-4,.5-4-.9l-.3-54.7c0-4.1-1.7-8.3-3.6-11.8-3.8-7-11.4-10.4-19.2-10.1-8.9.3-17.3,5.2-21.1,13.3-1.4,3.1-2.8,6.4-2.8,10.1Z"/>
    <path class="st0" d="M848.5,719.3c-14.8,7.7-36.2,2.4-49.7-7.9-1.2-.9-1.6-2-.7-3.4l4.5-6.9c1-1.5,3,0,3.9.6,13,10,35.4,14.4,41.9,1.1,2.1-4.3,1.6-9-1.9-12.5s-8.5-5.1-13.3-6.6l-12.1-4c-6.8-2.2-15.6-7.1-18.2-13.3s-2.2-18.7,3.8-25.7c12.3-14.2,38-10.5,52.8,0,.9.8-.1,3.1-.8,3.8-2.8,3.3-3.1,8.4-6.4,6.2-10-6.4-25.3-11.1-34.4-3.7-2.7,2.2-4,5.2-4,8.5s1.8,5.8,4.6,8,6,3.2,9.3,4.4l20.1,7.3c11.1,5.4,16.1,13.8,13.9,26.2s-6.6,14.3-13.3,17.8Z"/>
    <path class="st0" d="M749.4,721.4c-15.6,4-31.8-.8-44.2-10.3-1.1-.9-1.2-2.2-.5-3.2l4.7-6.9c.7-1,2.4-.2,3.2.3l8.6,5.3c7.7,4.7,17.7,6.1,26.3,3.1,7.3-2.6,10.6-10.6,7.2-17.2-5.6-10.9-40.2-10.2-45.6-27.4-2.6-8.2-1.4-17.1,4-23.7,11.4-14,34.7-11.4,50.2-2.5s4.1,1.8,3.3,3.3l-5,9.2c-2.4,0-3.5-1.5-5.2-2.3l-7.2-3.1c-10.8-4.7-25-3.6-28.1,6.7s3.7,12.1,11,14.5l11.5,3.9c5.4,1.8,10.7,3.7,15.4,6.8,5.3,3.5,9.1,8.9,9.8,15.2,1.5,13-6.2,25-19.4,28.3Z"/>
    <path class="st0" d="M1047.3,710c12.8,2.7,21.4-3,30-11.2,1.3-1.3,2.9-.3,3.9.7l4,4c.8.8,1.3,1.4,1.3,2.4s-.5,1.7-1.3,2.4l-7.6,6.6c-5.8,5-12.7,7.2-20.2,8-14.9,1.5-28.6-4-37.8-15.7s-4-5.1-5.5-8.3c-9-19.1-5.5-42.6,10.2-57s18.3-11.1,29.6-10.7,17.2,2.3,24.1,8l6.6,5.4c.8.6,1.2,1.6,1.2,2.4s-.5,1.7-1.2,2.4l-4.4,4.7c-.8.8-1.2,1.6-2,1.7-1.3.2-2-.4-2.9-1.4-8.5-8.6-15.5-12.4-28.2-10.5s-10,3.6-13.7,7.3c-12.7,12.9-13.8,33.1-3,47.7,4,5.5,10.3,9.5,17,10.9Z"/>
    <path class="st0" d="M1322,707.8c.5,4.7.9,11.2-1,12-8.3,3.4-17.9,4.3-26.4.5s-11.2-9.8-11.3-17.1l-.4-55.2c0-.9-.2-2.3-1.2-2.3h-8c-1.7-.1-2.8-1.2-2.8-2.9v-7.4c0-1,.3-1.8.9-2.2,2.2-1.7,11.1,2.5,11.1-3v-23.2c0,0,12.9,0,12.9,0l.2,25.6,24.4.2c1.3,0,2.1,1,2.3,2.2v8c.1,1-.6,2.6-1.8,2.6l-25,.2.2,51.2c0,3.9,1,8,4.1,10.4,5.4,4.1,12.4,3.8,18.5,1.1s2.6-1.4,3.2-.5Z"/>
    <path class="st0" d="M1401.5,857.7h-9.7c-.9,0-1.2-2-1.2-2.7l-.2-23.9c0-3.5-3.7-5.6-6.5-5.5s-5.9,2.9-5.9,6.8l-.3,25.2h-10.7c-.9.1-1.6-1.2-1.6-2.2v-39.2c0-1.4,1.6-1.8,2.7-1.8l9.4.2c.3,1.1.4,2.1.4,3.2,2,.2,3.1-1.3,4.6-2.2,6.1-3.6,13.7-2.1,18.3,3.9,6.4-6.5,16.3-8,23.1-2,2.8,2.4,3.9,6.7,3.9,10.3l.2,27.7c0,.6-.6,2.1-1.2,2.1l-9,.2c-1.1,0-2.1-.7-2.1-1.8l-.2-24.3c0-3.6-3-6-6-6.1s-6.5,2.3-6.5,6.1l-.2,24.3c0,.6-.6,1.6-1.5,1.6Z"/>
    <path class="st0" d="M767.5,864.5c-7.9,8.3-25.6,7.4-36,1.5.9-3.8,2.2-6.9,4.4-10.2,4.7,3.2,9.3,4,14.7,3.9s10.1-4.4,9.5-10.5l-6.1,3.8c-6.7,2.7-13.9.8-19.2-4.2-7.7-7.4-7.3-24.6,1.7-31.3,7.2-5.4,16.2-5.1,22.9.7.4-1.7.6-3.6,1.7-3.7,3.4-.2,7.5-.6,10.8.2,2,1,.5,4.3.5,5.9v22.8c0,0,.1,6.4.1,6.4,0,5.2-1.2,10.6-5,14.6ZM752.7,843.6c6.1-.7,9.2-7,7.8-12.4s-7.3-8.1-12.6-6.5-6.5,4.7-6.6,9.1.9,5.9,3.1,7.7,4.9,2.5,8.3,2Z"/>
    <path class="st0" d="M1449.3,870.2l-10.2.3c-.9,0-2.1-.7-2.1-1.8v-51.9c0-1.4.8-2.3,2.2-2.3h8c.7,0,1.6.2,1.9.6.4.6.4,1.6.6,2.9,2.2-.4,3.5-2.2,5.5-3,7.5-3,15.4-.3,20.5,5.9s4.8,10,4.7,15.8-2,11.9-6.4,16.7-14.7,6.9-21.4,2.6c-.9-.6-1.8-2.2-3.1-1.4v15.7ZM1463.8,846.1c4.6-3.6,5.6-9.5,3.7-14.8-1.5-4.2-4.9-6.8-9.2-6.8s-7.5,2.9-8.7,7.2-.4,11,3.5,14.2,7.2,2.9,10.7.1Z"/>
    <path class="st0" d="M808.6,857.8c-1.1,0-1.8-1.4-1.8-2.3v-23.3c0-4.2-2.9-6.6-6.8-6.5s-5.8,3.4-5.9,7.3v22.6c-.2,1.3-1.1,2.2-2.4,2.2h-8c-.9,0-2.2-.6-2.2-1.8v-55.3c0-1.1,1.2-1.8,2.2-1.8h8c1.4,0,2.2.9,2.3,2.2l.3,17.3c4.4-3.3,7.7-5.1,12.6-4.7,3.9.3,8.2,2.2,10.5,6.4s2.2,4.9,2.2,7.3l.2,28c0,1.3-1,2.2-2.3,2.2h-8.9Z"/>
    <path class="st0" d="M1085.3,816.6v38.8c0,1.3-1,2.4-2.1,2.4l-10-.2-1.6-3.8c-3.5,3.9-7.2,4.9-12.1,4.7s-12-5.1-12-11.9l-.3-31.8,10.3-.3c1,0,2.1.6,2.1,1.7v24.5c.1,3.5,3.2,5.7,6.2,5.9s6.5-2.2,6.5-6l.2-24.3c0-1.1,1.1-1.7,2.1-1.7h9.1c.6,0,1.6,1.1,1.6,2.1Z"/>
    <path class="st0" d="M1150.8,857.7h-9.9c-.8,0-1.6-1.3-1.6-2.2l.2-21.4c0-2.4,0-4.2,0-6.7l-.3-10.6c0-1.3.9-2.2,2.2-2.2l9.5.2c1.1,0,1.5,2.2,1.3,3.1,2.1,0,3-1.6,4.5-2.4,5.3-2.6,11.7-2.2,16.2,1.8,2.3,2.1,4.2,5.5,4.2,8.7l.3,29.6c0,1.3-1,2.3-2.3,2.3h-8c-1,0-2.1-.7-2.1-1.8l-.2-24.3c0-3.4-2.6-5.7-5.4-6.1s-6.9,1.5-7,4.9l-.3,24.9c0,.7-.4,2.2-1.4,2.2Z"/>
    <path class="st0" d="M1133.4,718.4c0,1.2-.3,2.6-1.1,2.6h-12.5c0,0,0-86.2,0-86.2,0-1.5.9-2.3,2.2-2.3h9.1c1.2,0,2.3,1,2.3,2.4v83.5Z"/>
    <path class="st0" d="M1117.6,847.4l6.2-3.5,5.3,4.7c1.1,1,1.1,2.3.2,3.4-4.5,5.2-11.5,7.4-18.2,6.7-11.8-1.2-19.2-11.1-18.9-22.5.2-8.3,2.9-15.4,9.9-19.5s16-4.1,22.3,1c7,5.7,9,13.8,7.6,22.9h-25.3c-.7.1-1.7.6-1.9,1-.6,1.4,4.6,9.1,12.7,5.8ZM1120.3,832.5c.1-4.8-3.1-8.4-7.4-8.4-2.7-.2-5.1.6-6.6,2.3s-2.4,3.8-2,6.3l16-.2Z"/>
    <path class="st0" d="M1254.3,845.6c1.1-.9,2.8-2.1,4-.9s3.9,3.2,5,5.3-11,13.3-25.3,6.8c-10.8-4.9-15-18.2-11-29,2.6-7,8.3-12.3,15-13.5,7.8-1.4,15.8,1.1,20.1,7.8s4.4,12.1,3.9,18.5l-26.5.4c-1.2,0-.6,2.5,0,3.2,3.5,4.9,10.1,5.6,14.9,1.5ZM1254.5,832.4c-.5-4.5-2.8-6.4-5.5-8.2-1.9,0-4.1-.6-5.9.2-3.1,1.3-5.6,4.5-5.3,8.1l16.7-.2Z"/>
    <path class="st0" d="M1509.7,855c.6.2-10.9,7.5-19.9.7-7-5.3-6.6-17.5.9-22.1,5.8-3.6,12.9-2.9,19.4-1.5,1.3-2.6-.8-5.5-3.6-6.3-7.7-2.3-14.8,2.9-15.5.7l-2.8-8.5c5.1-3.2,10.4-3.7,16.1-3.6,4.3,0,8.5.2,12.1,2.8s5.9,7,5.9,11.6l.2,27.2c0,1.1-1.3,1.8-2.2,1.8h-7.5c-2.1,0-2.1-2.4-3.2-2.8ZM1507,849c3.2-1.1,6.2-6.2,3.4-9-5.8-2.2-13.3-1.5-14,3.9s.8,4.5,2.9,5.3,5,.8,7.8-.2Z"/>
    <path class="st0" d="M963,830.3l-.3,25.2c0,.9-.5,2.3-1.6,2.3l-10-.2c-1.7,0-.9-3.1-.9-4.2l.2-38.7h11.5c.4,1.1.4,2.1.4,3.3,2.2.2,3.3-1.6,5-2.5,5.5-2.8,12.8-2,16.9,2.6,2.3,2.5,3.6,5.8,3.6,9.1v28.8c0,1.1-1.1,1.9-2,1.9l-9.6-.2-.3-23.1c0-2.2-.5-4.6-1.6-6.5s-4.1-2.7-6.5-2.3-4.8,1.6-4.8,4.5Z"/>
    <path class="st0" d="M637.3,832v23.6c-.1,1.3-1,2.3-2.4,2.2l-9.6-.2-.2-40.2c0-1.2-.5-2.9,1.4-2.9h10.5c.3,1.6-.2,2.8.8,4.2,4.4-4.6,10.2-6.2,16.1-4.2,5.2,1.8,8.8,6.9,8.9,12.7l.3,28.8c0,1.1-1.4,1.8-2.2,1.7l-10.2-.3v-21.4c-.1-2.6-.2-5.6-1.5-7.8s-4.5-3.1-7.2-2.3-4.6,2.6-4.6,5.9Z"/>
    <path class="st0" d="M1368.2,716.8c0,1.4.8,4-1.1,4.5-3.2.9-12,.5-12-1v-85.5c0-1.5.8-2.3,2.2-2.3l10.7.3.2,22.6v42.6c0,0,0,18.7,0,18.7Z"/>
    <path class="st0" d="M699.7,852.9c-5.5,7.9-21,7.1-29.9,0s-.9-2.2-.2-3.3c1.4-2,2.1-4.6,4.3-6.2l4.9,2.7c5.4,3,11.5,2.7,11.8,0s-.3-2.1-1.4-2.5l-9-3.5c-4.9-1.9-8.9-5-9.6-10.3-1.1-7.8,4-14.3,11.7-15.7,5.5-1,10.7.5,15.9,2.9.8.4,1.7.4,2.1,1,1.4,2.2-1.2,6.7-4.2,9.7-5.4-3.3-13.4-5.1-14.1-1.7s.6,2.2,1.6,2.6l8.7,3.3c4.6,1.7,8.8,5,9.9,10s-.3,7.7-2.5,10.8Z"/>
    <path class="st0" d="M1011,826v30.1c-.1,1.1-1.3,1.8-2.3,1.8h-8c-1.4,0-2.2-.9-2.2-2.3v-29.7c-1.8,0-3.1,0-4.6-.7v-9.8c.1,0,4.3-.5,4.3-.5l.6-5.1c.4-3.1,1.3-6.2,3.7-8.2,3.9-3.1,8.8-3.3,13.6-2.6s4,.8,3.9,3.6l-.2,7.6c-2.7,1-5.4-1.7-8.1.9s-1.5,2.9-.4,3.7l8.5.6.2,8.3c0,1.4-.9,2.2-2.2,2.2l-6.8.2Z"/>
    <path class="st0" d="M1546.6,845.9c7,4.1,12.6-2.2,13.6-2.3s2,.1,2.7,1l4.7,5.9c-3.2,4.9-8.1,7.5-13.8,8.2-11.3,1.5-21.3-6-23.8-17.3s0-14.3,4.7-20.2c7.5-9.7,25.3-10.3,32.8-.1-2.1,3.4-4.3,6.2-7.5,8.5-3.1-3.8-7.7-5.5-11.8-4s-6.2,5.9-6.2,10.5,1.3,7.7,4.7,9.8Z"/>
    <path class="st0" d="M1204.2,846.9c8.1,2.1,10-6.4,13.3-2.6l4.2,4.9c1,1.1.3,2.3-.5,3.1-5.6,6.1-13.9,7.9-21.8,5.5-10-3.1-15.4-12.5-15-22.7s9.4-21.4,21.8-21.2,9.4,1.2,13.4,4.4,1.8,1,1.9,1.8.2,2.4-.6,3.3l-4,4.6c-3.5,4-4.7-4.5-13.1-2.6-3.1.7-5.7,3.5-6.8,7-1.9,5.9.6,12.9,7.1,14.6Z"/>
    <path class="st0" d="M851.4,846.2c.9,2.4.3,5.2.4,7.7.2,4.6-10.7,5.9-16.1,3.5s-5.8-6-5.9-9.9l-.4-21.5c-1.2-.1-3.7,0-4-1.1-.8-3-.3-6.4-.3-9.6,1.3-.9,2.7-.8,4.2-1.2l.6-9.3c0-1.6,3.4-1,4.7-1,2.6,0,5-.7,7.4.4l.4,9.9c4.5,1.2,9.4-1,9.3,2.5l-.2,8.7-9.4.6v16.9c0,1.3.7,2.6,1.4,3.1,2.2,1.7,5.2-.7,7.8.2Z"/>
    <path class="st0" d="M1598.1,846.1v8.9c0,2.8-10.9,5.4-16.9,1.7s-4.3-5.8-4.4-9.2l-.3-21.3-4.4-1v-10.2s4.4-.8,4.4-.8l.4-9.8c3.9-1,8.2-.9,12.1,0l.4,10,8.8.4v10.6c.1,0-8.9.7-8.9.7v17.5c-.1,1,.4,2,.8,2.4,1.7,1.7,4.9-.4,8.1.1Z"/>
    <path class="st0" d="M1037.8,857.6l-10.8.3c-1.4,0-2.2-.9-2.2-2.3v-54.2c0-1,.7-2.3,1.6-2.3h9.1c1.3,0,2.2.8,2.2,2.2v56.3Z"/>
    <path class="st1" d="M903.4,831.5c1.8,8.8-2.6,17.2-11.1,19.1s-17.2-4.4-18.4-13.7c-.9-7.1,3.8-14.3,10.6-16.7,8.6-2.9,17.1,2.6,18.9,11.2Z"/>
    <path class="st1" d="M1314.9,847.5c-7.8,6.1-17.9,3.6-22-3.7-3.3-5.7-3.1-14.2,1.9-19.3s6.9-5.1,11.3-5c4.1.1,7.8,2.3,10.8,5.6,5.8,6.4,4.7,17.2-1.9,22.4Z"/>
    <path class="st0" d="M930,857.8c-1.2,0-1.8-1.3-1.8-2.3v-38.7c0-1.4.8-2.3,2.1-2.2l10.2.2v43s-10.5.1-10.5.1Z"/>
    <path class="st0" d="M1356.1,857.4l-10.8.3c-.9,0-1.6-1.4-1.6-2.3v-39.2c0-1.4,1.6-1.8,2.7-1.8l9.7.4v42.6Z"/>
    <path class="st0" d="M721.9,855.3c0,1.7-.8,2.5-2.3,2.5h-8c-1.3,0-2.2-.9-2.2-2.3v-40.8c.1,0,10.2-.2,10.2-.2.9,0,2.2.6,2.2,1.7v39Z"/>
    <path class="st0" d="M613.4,857.8h-8.3c-1,0-2.1-.6-2.1-1.7v-39.3c0-1.4.8-2.3,2.2-2.3h8c1.3,0,2.2.9,2.2,2.2v39.3c-.2.9-.9,1.7-2,1.7Z"/>
    <path class="st0" d="M1369.2,614.5h-15c0,.1-.3-12.9-.3-12.9,0-1.3.9-2.3,2.2-2.2h13c0,.1.1,15.2.1,15.2Z"/>
    <path class="st0" d="M1134,614.5h-14.6c-.9-3.1-.4-6.3-.4-9.6s-.8-4.8,1-5.3l14-.2v15.1Z"/>
    <path class="st0" d="M1356.6,808.4c0,1.2-.4,2-.9,2.4s-1.4.7-2.3.5c-4.8-1.3-7.4,1-9.3-.6s-1-1.4-1-2.6v-5.8c0-.8.3-3.1,1.3-3.1l10.6-.2c1.1,0,1.6,1.3,1.6,2.2v7.2Z"/>
    <path class="st0" d="M615.7,809.9c0,1.6-2.6,1.2-3.7,1.2l-9.2-.4-.3-9.4c0-1.3.9-2.2,2.2-2.2h9.2c1.3,0,2.2.9,2.2,2.2l-.3,8.6Z"/>
    <path class="st0" d="M721.9,810.9h-12.6c-.7-3.9-.9-7.8.2-11.7h11.6c1.8,1.5,1.5,7.4.7,11.7Z"/>
    <path class="st0" d="M941,810.8h-12.6c0,.1-.3-9.5-.3-9.5,0-1.3.9-2.2,2.2-2.2h8.6c1.3,0,2.2.9,2.2,2.2v9.5Z"/>
  </g>
</svg>