<?xml version="1.0" encoding="UTF-8"?>
<svg id="Layer_2" data-name="Layer 2" xmlns="http://www.w3.org/2000/svg" viewBox="0 0 137.22 38.95">
  <defs>
    <style>
      .cls-1 {
        fill: #d09330;
      }

      .cls-2 {
        fill: #ebd7bc;
      }
    </style>
  </defs>
  <g id="Layer_1-2" data-name="Layer 1">
    <g>
      <rect class="cls-1" width="38.95" height="38.95"/>
      <g>
        <polygon class="cls-2" points="29.66 12.97 29.66 24.19 20.62 12.97 19.63 12.97 19.63 25.98 20.62 25.98 20.62 14.53 29.66 25.98 30.64 25.98 30.64 12.97 29.66 12.97"/>
        <polygon class="cls-2" points="8.31 12.97 8.31 13.86 8.31 19.24 8.31 20.14 8.31 25.98 9.29 25.98 9.29 20.14 16.44 20.14 16.44 19.24 9.29 19.24 9.29 13.86 17.35 13.86 17.35 12.97 9.29 12.97 8.31 12.97"/>
      </g>
    </g>
    <g>
      <path class="cls-1" d="m55.61,15.02h1.86c2.75,0,5.03,1.45,5.03,4.44s-2.24,4.53-5.07,4.53h-1.82v-8.97Zm1.12,7.94h.39c2.28,0,4.26-.86,4.26-3.46s-1.97-3.46-4.26-3.46h-.39v6.92Z"/>
      <path class="cls-1" d="m71.96,15.02h4.82v1.02h-3.7v2.51h3.59v1.02h-3.59v3.39h3.7v1.02h-4.82v-8.97Z"/>
      <path class="cls-1" d="m90.13,16.72c-.33-.56-.76-.84-1.44-.84-.71,0-1.5.49-1.5,1.27,0,.7.69,1.07,1.25,1.28l.64.25c1.27.5,2.22,1.2,2.22,2.7,0,1.63-1.26,2.79-2.87,2.79-1.45,0-2.58-1.07-2.77-2.51l1.13-.24c-.01.99.77,1.7,1.74,1.7s1.65-.81,1.65-1.75-.77-1.38-1.55-1.7l-.62-.26c-1.02-.44-1.95-1.02-1.95-2.27,0-1.45,1.28-2.32,2.64-2.32,1,0,1.82.49,2.31,1.36l-.89.54Z"/>
      <path class="cls-1" d="m101.83,23.99h-1.12v-8.97h1.12v8.97Z"/>
      <path class="cls-1" d="m120.03,19.47v.36c0,2.46-1.74,4.35-4.25,4.35s-4.53-2.16-4.53-4.65,2.07-4.7,4.65-4.7c1.39,0,2.77.63,3.65,1.74l-.78.75c-.64-.88-1.72-1.46-2.82-1.46-2.01,0-3.58,1.63-3.58,3.64,0,1.88,1.55,3.66,3.48,3.66,1.39,0,2.89-1.2,2.94-2.66h-2.32v-1.02h3.56Z"/>
      <path class="cls-1" d="m129.37,14.59l6.73,7.05v-6.62h1.12v9.34l-6.73-7.05v6.68h-1.12v-9.4Z"/>
    </g>
  </g>
</svg>